<svg width="98" height="89" viewBox="0 0 98 89" fill="none" xmlns="http://www.w3.org/2000/svg">
<path d="M20.4493 52.3926V39.2613L24.2389 36.2154V5.46289H18.8095L0 21.2791L1.89478 24.6935C5.82285 24.2648 13.0741 22.3771 15.2969 21.5273V78.4446L1.89478 82.3328V88.4923H24.2389V55.4385L20.4566 52.4001L20.4493 52.3926Z" fill="white"/>
<path d="M48.0696 82.3253L34.7841 78.4822V5.46289H26.2576V37.0201L22.468 40.0585V51.5878L26.2576 54.6262V88.4848H48.0696V82.3253Z" fill="white"/>
<path d="M57.5643 13.7041C57.4549 12.3643 56.5799 11.5986 54.8026 11.5986C53.0799 11.5986 52.3143 12.2549 52.2869 13.1846C52.2596 14.1963 53.1893 14.7705 55.0213 15.1533L56.6619 15.5361C60.9276 16.4385 62.8143 18.5166 62.8416 21.5518C62.8143 25.4346 59.8338 27.6221 54.8299 27.6221C49.7166 27.6221 46.408 25.3799 46.3533 20.5127H51.3299C51.4119 22.3447 52.6971 23.3291 54.7479 23.3291C56.5252 23.3291 57.4822 22.5908 57.5096 21.5518C57.4822 20.5947 56.6893 20.0479 54.4744 19.5557L52.4783 19.1182C49.0057 18.3525 46.8729 16.6299 46.8729 13.5674C46.8455 9.82129 50.1541 7.30566 54.8026 7.30566C59.5604 7.30566 62.5408 9.84863 62.5682 13.7041H57.5643ZM63.5602 11.79V7.5791H80.6227V11.79H74.6618V27.376H69.5211V11.79H63.5602Z" fill="white"/>
</svg>
