<svg width="32" height="29" viewBox="0 0 32 29" fill="none" xmlns="http://www.w3.org/2000/svg">
<path d="M6.677 17.1191V12.7974L7.91441 11.795V1.67383H6.14158L-0.000244141 6.8792L0.618454 8.00294C1.90107 7.86185 4.26881 7.24058 4.9946 6.96088V25.6933L0.618454 26.9729V29.0001H7.91441V18.1216L6.67938 17.1216L6.677 17.1191Z" fill="white"/>
<path d="M15.6958 26.9707L11.3577 25.7059V1.67407H8.57359V12.0601L7.33618 13.06V16.8545L8.57359 17.8545V28.9979H15.6958V26.9707Z" fill="white"/>
<path d="M19.0944 4.19648C19.056 3.72574 18.7486 3.45674 18.1241 3.45674C17.5189 3.45674 17.2499 3.68731 17.2403 4.01395C17.2307 4.36941 17.5573 4.57115 18.201 4.70565L18.7774 4.84015C20.2761 5.15718 20.939 5.88732 20.9486 6.9537C20.939 8.3179 19.8918 9.08646 18.1337 9.08646C16.3372 9.08646 15.1748 8.29869 15.1556 6.58863H16.904C16.9329 7.2323 17.3844 7.57816 18.1049 7.57816C18.7294 7.57816 19.0656 7.31877 19.0752 6.9537C19.0656 6.61745 18.787 6.42531 18.0088 6.25239L17.3075 6.09867C16.0874 5.82968 15.3381 5.22443 15.3381 4.14845C15.3285 2.83228 16.4909 1.94843 18.1241 1.94843C19.7958 1.94843 20.8429 2.84189 20.8525 4.19648H19.0944ZM21.2011 3.52399V2.0445H27.1959V3.52399H25.1015V9H23.2954V3.52399H21.2011Z" fill="white"/>
</svg>
