<svg width="20" height="20" viewBox="0 0 20 20" fill="none" xmlns="http://www.w3.org/2000/svg">
<g clip-path="url(#clip0_3608_548)">
<path d="M13.3334 5.00004H15.8334C16.0544 5.00004 16.2663 5.08784 16.4226 5.24412C16.5789 5.4004 16.6667 5.61236 16.6667 5.83337V15C16.6667 15.4421 16.4911 15.866 16.1786 16.1786C15.866 16.4911 15.4421 16.6667 15 16.6667C14.558 16.6667 14.1341 16.4911 13.8215 16.1786C13.509 15.866 13.3334 15.4421 13.3334 15V4.16671C13.3334 3.94569 13.2456 3.73373 13.0893 3.57745C12.933 3.42117 12.7211 3.33337 12.5 3.33337H4.16671C3.94569 3.33337 3.73373 3.42117 3.57745 3.57745C3.42117 3.73373 3.33337 3.94569 3.33337 4.16671V14.1667C3.33337 14.8297 3.59677 15.4656 4.06561 15.9345C4.53445 16.4033 5.17033 16.6667 5.83337 16.6667H15" stroke="#00427A" stroke-linecap="round" stroke-linejoin="round"/>
<path d="M6.66663 6.66663H9.99996" stroke="#00427A" stroke-linecap="round" stroke-linejoin="round"/>
<path d="M6.66663 10H9.99996" stroke="#00427A" stroke-linecap="round" stroke-linejoin="round"/>
<path d="M6.66663 13.3334H9.99996" stroke="#00427A" stroke-linecap="round" stroke-linejoin="round"/>
</g>
<defs>
<clipPath id="clip0_3608_548">
<rect width="20" height="20" fill="white"/>
</clipPath>
</defs>
</svg>
