<svg width="20" height="20" viewBox="0 0 20 20" fill="none" xmlns="http://www.w3.org/2000/svg">
<rect x="2.5" y="2.5" width="15" height="15" rx="7.5" stroke="#00427A"/>
<path d="M10.3536 6.64645C10.1583 6.45118 9.84171 6.45118 9.64645 6.64645L6.46447 9.82843C6.2692 10.0237 6.2692 10.3403 6.46447 10.5355C6.65973 10.7308 6.97631 10.7308 7.17157 10.5355L10 7.70711L12.8284 10.5355C13.0237 10.7308 13.3403 10.7308 13.5355 10.5355C13.7308 10.3403 13.7308 10.0237 13.5355 9.82843L10.3536 6.64645ZM9.5 14C9.5 14.2761 9.72386 14.5 10 14.5C10.2761 14.5 10.5 14.2761 10.5 14L9.5 14ZM9.5 7L9.5 14L10.5 14L10.5 7L9.5 7Z" fill="#00427A"/>
</svg>
