<svg width="108" height="24" viewBox="0 0 108 24" fill="none" xmlns="http://www.w3.org/2000/svg">
<path d="M0 13.7093C0 17.9005 3.05617 22.1034 8.27809 22.1034C13.5 22.1034 13.2817 20.4995 13.2817 20.4995L12.3396 18.2342C12.3396 18.2342 3.28021 21.2956 3.28021 13.9317C3.28021 6.56783 8.89276 7.19417 11.4491 7.76197L12.5579 5.55514C12.5579 5.55514 0.608936 1.70344 0 13.7093Z" fill="white"/>
<path d="M30.9524 4.96988V21.7231H34.2901V8.33573L40.8275 21.7231H45.4634V4.96988H42.3154V18.3162L35.4218 4.96988H30.9524Z" fill="white"/>
<path d="M61.5486 4.96988H48.8816V7.85573H53.1614V21.7231H56.6369V7.85573H60.0837L61.5486 4.96988Z" fill="white"/>
<path d="M67.6724 14.5816H73.5205V11.5728H68.649L67.6724 12.7787V7.81476H73.1988L74.3765 5.01085H67.6724V4.96988H64.306V5.01085V7.81476V18.9191V20.0021V21.7231H73.1988L74.3765 18.9191H67.6724V14.5816Z" fill="white"/>
<path d="M20.2271 14.5816H26.0752V11.5728H21.2037L20.2271 12.7787V7.81476H25.7535L26.9311 5.01085H20.2271V4.96988H16.8607V5.01085V7.81476V18.9191V20.0021V21.7231H25.7535L26.9311 18.9191H20.2271V14.5816Z" fill="white"/>
<path d="M88.29 18.919L85.5728 14.4995C87.2215 14.0195 89.1689 12.8195 89.1689 9.85754C89.1689 4.71218 84.3147 4.96974 84.3147 4.96974H78.3402V21.7229H81.7066V14.8214H82.3557L86.5264 21.7229H89.5251L90.9268 18.919H88.2843H88.29ZM81.7066 12.4858V7.81462H83.9872C83.9872 7.81462 86.4 7.74437 86.4 9.89267C86.4 12.041 84.51 12.48 84.0562 12.48H81.7123L81.7066 12.4858Z" fill="white"/>
<path d="M95.1779 4.50313L99.2451 0.786057H100.618V7.39484C100.618 7.39484 99.4979 7.52362 99.4979 9.47874C99.4979 11.4339 100.618 11.51 100.618 11.51V18.4114H95.4766V17.5685L98.7051 16.1753V4.00557L97.5964 4.50313H95.1779Z" fill="white"/>
<path d="M101.227 0.786057H102.893V16.1753L105.759 17.5685V18.4114H101.227V11.1646C101.227 11.1646 100.095 10.907 100.095 9.43191C100.095 7.95679 100.624 7.83386 101.227 7.55874V0.786057Z" fill="white"/>
</svg>
