<svg width="251" height="101" viewBox="0 0 251 101" fill="none" xmlns="http://www.w3.org/2000/svg">
<path d="M12.09 7.065H0.65V0.299999H31.78V7.065H20.23V41H12.09V7.065ZM36.73 0.299999H44.87V16.305H60.27V0.299999H68.355V41H60.27V23.4H44.87V41H36.73V0.299999ZM76.706 0.299999H101.676V7.065H84.846V16.47H99.146V23.29H84.846V34.18H102.281V41H76.706V0.299999ZM4.005 59.3H17.48C19.57 59.3 21.5133 59.465 23.31 59.795C25.1067 60.125 26.665 60.675 27.985 61.445C29.305 62.215 30.3317 63.2417 31.065 64.525C31.835 65.8083 32.22 67.4033 32.22 69.31C32.22 70.2633 32.0917 71.1983 31.835 72.115C31.5783 73.0317 31.2117 73.8933 30.735 74.7C30.2583 75.47 29.6717 76.1667 28.975 76.79C28.315 77.3767 27.545 77.8167 26.665 78.11V78.385C28.865 78.8983 30.68 79.9433 32.11 81.52C33.5767 83.0967 34.31 85.26 34.31 88.01C34.31 90.0633 33.9067 91.8417 33.1 93.345C32.2933 94.8483 31.175 96.095 29.745 97.085C28.3517 98.075 26.6833 98.8083 24.74 99.285C22.8333 99.7617 20.7617 100 18.525 100H4.005V59.3ZM16.875 75.855C19.4783 75.855 21.3667 75.3783 22.54 74.425C23.7133 73.4717 24.3 72.17 24.3 70.52C24.3 68.7233 23.695 67.44 22.485 66.67C21.275 65.9 19.4417 65.515 16.985 65.515H12.145V75.855H16.875ZM17.81 93.73C20.5967 93.73 22.7233 93.235 24.19 92.245C25.6567 91.2183 26.39 89.6417 26.39 87.515C26.39 85.535 25.6567 84.105 24.19 83.225C22.76 82.345 20.6333 81.905 17.81 81.905H12.145V93.73H17.81ZM55.4115 100.77C52.9182 100.77 50.6999 100.422 48.7565 99.725C46.8132 98.9917 45.1449 97.855 43.7515 96.315C42.3949 94.775 41.3499 92.795 40.6165 90.375C39.9199 87.955 39.5715 85.0583 39.5715 81.685V59.3H47.7115V82.4C47.7115 84.5267 47.8765 86.3233 48.2065 87.79C48.5732 89.22 49.0865 90.375 49.7465 91.255C50.4065 92.135 51.2132 92.7767 52.1665 93.18C53.1199 93.5467 54.2015 93.73 55.4115 93.73C56.6215 93.73 57.7032 93.5467 58.6565 93.18C59.6465 92.7767 60.4899 92.135 61.1865 91.255C61.8832 90.375 62.4149 89.22 62.7815 87.79C63.1482 86.3233 63.3315 84.5267 63.3315 82.4V59.3H71.1415V81.685C71.1415 85.0583 70.7932 87.955 70.0965 90.375C69.3999 92.795 68.3732 94.775 67.0165 96.315C65.6599 97.855 64.0099 98.9917 62.0665 99.725C60.1232 100.422 57.9049 100.77 55.4115 100.77ZM79.2841 59.3H87.4241V100H79.2841V59.3ZM95.7884 59.3H103.928V93.18H120.428V100H95.7884V59.3ZM125.882 59.3H137.047C140.163 59.3 142.95 59.7033 145.407 60.51C147.9 61.3167 150.008 62.5633 151.732 64.25C153.492 65.9 154.83 67.99 155.747 70.52C156.7 73.05 157.177 76.0383 157.177 79.485C157.177 82.895 156.7 85.8833 155.747 88.45C154.83 91.0167 153.51 93.1617 151.787 94.885C150.1 96.5717 148.047 97.855 145.627 98.735C143.207 99.5783 140.493 100 137.487 100H125.882V59.3ZM136.552 93.455C138.458 93.455 140.163 93.1983 141.667 92.685C143.207 92.135 144.508 91.31 145.572 90.21C146.635 89.0733 147.442 87.625 147.992 85.865C148.578 84.105 148.872 81.9783 148.872 79.485C148.872 76.9917 148.578 74.8833 147.992 73.16C147.442 71.4 146.635 69.9883 145.572 68.925C144.508 67.825 143.207 67.0367 141.667 66.56C140.163 66.0467 138.458 65.79 136.552 65.79H134.022V93.455H136.552ZM163.494 59.3H171.634V100H163.494V59.3ZM179.999 59.3H188.304L200.129 80.97L204.199 89.77H204.474C204.254 87.6433 204.015 85.315 203.759 82.785C203.539 80.255 203.429 77.835 203.429 75.525V59.3H211.129V100H202.879L191.109 78.22L186.984 69.475H186.709C186.892 71.675 187.094 74.0033 187.314 76.46C187.57 78.9167 187.699 81.3183 187.699 83.665V100H179.999V59.3ZM237.035 100.77C234.248 100.77 231.663 100.312 229.28 99.395C226.897 98.4783 224.825 97.14 223.065 95.38C221.342 93.62 219.985 91.4383 218.995 88.835C218.005 86.2317 217.51 83.225 217.51 79.815C217.51 76.4783 218.023 73.49 219.05 70.85C220.077 68.21 221.47 65.9733 223.23 64.14C224.99 62.3067 227.043 60.9133 229.39 59.96C231.773 59.0067 234.322 58.53 237.035 58.53C239.968 58.53 242.462 59.0617 244.515 60.125C246.605 61.1883 248.31 62.3983 249.63 63.755L245.285 68.925C244.295 67.9717 243.177 67.165 241.93 66.505C240.72 65.845 239.18 65.515 237.31 65.515C235.623 65.515 234.065 65.845 232.635 66.505C231.242 67.1283 230.032 68.045 229.005 69.255C228.015 70.465 227.227 71.9317 226.64 73.655C226.09 75.3783 225.815 77.34 225.815 79.54C225.815 83.9767 226.823 87.46 228.84 89.99C230.857 92.4833 233.863 93.73 237.86 93.73C238.85 93.73 239.803 93.6017 240.72 93.345C241.637 93.0883 242.388 92.7033 242.975 92.19V84.16H235.77V77.505H250.235V95.875C248.842 97.2317 247.008 98.3867 244.735 99.34C242.462 100.293 239.895 100.77 237.035 100.77Z" fill="white"/>
</svg>
