<svg width="254" height="118" viewBox="0 0 254 118" fill="none" xmlns="http://www.w3.org/2000/svg">
<path d="M13.09 19.065H1.65V12.3H32.78V19.065H21.23V53H13.09V19.065ZM37.73 12.3H45.87V28.305H61.27V12.3H69.355V53H61.27V35.4H45.87V53H37.73V12.3ZM77.706 12.3H102.676V19.065H85.846V28.47H100.146V35.29H85.846V46.18H103.281V53H77.706V12.3ZM5.005 71.3H18.48C20.57 71.3 22.5133 71.465 24.31 71.795C26.1067 72.125 27.665 72.675 28.985 73.445C30.305 74.215 31.3317 75.2417 32.065 76.525C32.835 77.8083 33.22 79.4033 33.22 81.31C33.22 82.2633 33.0917 83.1983 32.835 84.115C32.5783 85.0317 32.2117 85.8933 31.735 86.7C31.2583 87.47 30.6717 88.1667 29.975 88.79C29.315 89.3767 28.545 89.8167 27.665 90.11V90.385C29.865 90.8983 31.68 91.9433 33.11 93.52C34.5767 95.0967 35.31 97.26 35.31 100.01C35.31 102.063 34.9067 103.842 34.1 105.345C33.2933 106.848 32.175 108.095 30.745 109.085C29.3517 110.075 27.6833 110.808 25.74 111.285C23.8333 111.762 21.7617 112 19.525 112H5.005V71.3ZM17.875 87.855C20.4783 87.855 22.3667 87.3783 23.54 86.425C24.7133 85.4717 25.3 84.17 25.3 82.52C25.3 80.7233 24.695 79.44 23.485 78.67C22.275 77.9 20.4417 77.515 17.985 77.515H13.145V87.855H17.875ZM18.81 105.73C21.5967 105.73 23.7233 105.235 25.19 104.245C26.6567 103.218 27.39 101.642 27.39 99.515C27.39 97.535 26.6567 96.105 25.19 95.225C23.76 94.345 21.6333 93.905 18.81 93.905H13.145V105.73H18.81ZM56.4115 112.77C53.9182 112.77 51.6999 112.422 49.7565 111.725C47.8132 110.992 46.1449 109.855 44.7515 108.315C43.3949 106.775 42.3499 104.795 41.6165 102.375C40.9199 99.955 40.5715 97.0583 40.5715 93.685V71.3H48.7115V94.4C48.7115 96.5267 48.8765 98.3233 49.2065 99.79C49.5732 101.22 50.0865 102.375 50.7465 103.255C51.4065 104.135 52.2132 104.777 53.1665 105.18C54.1199 105.547 55.2015 105.73 56.4115 105.73C57.6215 105.73 58.7032 105.547 59.6565 105.18C60.6465 104.777 61.4899 104.135 62.1865 103.255C62.8832 102.375 63.4149 101.22 63.7815 99.79C64.1482 98.3233 64.3315 96.5267 64.3315 94.4V71.3H72.1415V93.685C72.1415 97.0583 71.7932 99.955 71.0965 102.375C70.3999 104.795 69.3732 106.775 68.0165 108.315C66.6599 109.855 65.0099 110.992 63.0665 111.725C61.1232 112.422 58.9049 112.77 56.4115 112.77ZM80.2841 71.3H88.4241V112H80.2841V71.3ZM96.7884 71.3H104.928V105.18H121.428V112H96.7884V71.3ZM126.882 71.3H138.047C141.163 71.3 143.95 71.7033 146.407 72.51C148.9 73.3167 151.008 74.5633 152.732 76.25C154.492 77.9 155.83 79.99 156.747 82.52C157.7 85.05 158.177 88.0383 158.177 91.485C158.177 94.895 157.7 97.8833 156.747 100.45C155.83 103.017 154.51 105.162 152.787 106.885C151.1 108.572 149.047 109.855 146.627 110.735C144.207 111.578 141.493 112 138.487 112H126.882V71.3ZM137.552 105.455C139.458 105.455 141.163 105.198 142.667 104.685C144.207 104.135 145.508 103.31 146.572 102.21C147.635 101.073 148.442 99.625 148.992 97.865C149.578 96.105 149.872 93.9783 149.872 91.485C149.872 88.9917 149.578 86.8833 148.992 85.16C148.442 83.4 147.635 81.9883 146.572 80.925C145.508 79.825 144.207 79.0367 142.667 78.56C141.163 78.0467 139.458 77.79 137.552 77.79H135.022V105.455H137.552ZM164.494 71.3H172.634V112H164.494V71.3ZM180.999 71.3H189.304L201.129 92.97L205.199 101.77H205.474C205.254 99.6433 205.015 97.315 204.759 94.785C204.539 92.255 204.429 89.835 204.429 87.525V71.3H212.129V112H203.879L192.109 90.22L187.984 81.475H187.709C187.892 83.675 188.094 86.0033 188.314 88.46C188.57 90.9167 188.699 93.3183 188.699 95.665V112H180.999V71.3ZM238.035 112.77C235.248 112.77 232.663 112.312 230.28 111.395C227.897 110.478 225.825 109.14 224.065 107.38C222.342 105.62 220.985 103.438 219.995 100.835C219.005 98.2317 218.51 95.225 218.51 91.815C218.51 88.4783 219.023 85.49 220.05 82.85C221.077 80.21 222.47 77.9733 224.23 76.14C225.99 74.3067 228.043 72.9133 230.39 71.96C232.773 71.0067 235.322 70.53 238.035 70.53C240.968 70.53 243.462 71.0617 245.515 72.125C247.605 73.1883 249.31 74.3983 250.63 75.755L246.285 80.925C245.295 79.9717 244.177 79.165 242.93 78.505C241.72 77.845 240.18 77.515 238.31 77.515C236.623 77.515 235.065 77.845 233.635 78.505C232.242 79.1283 231.032 80.045 230.005 81.255C229.015 82.465 228.227 83.9317 227.64 85.655C227.09 87.3783 226.815 89.34 226.815 91.54C226.815 95.9767 227.823 99.46 229.84 101.99C231.857 104.483 234.863 105.73 238.86 105.73C239.85 105.73 240.803 105.602 241.72 105.345C242.637 105.088 243.388 104.703 243.975 104.19V96.16H236.77V89.505H251.235V107.875C249.842 109.232 248.008 110.387 245.735 111.34C243.462 112.293 240.895 112.77 238.035 112.77Z" fill="white"/>
<path d="M159.087 33.4371C157.526 33.4371 156.006 33.1457 154.528 32.5629C153.071 31.98 151.781 31.1474 150.657 30.065L153.311 26.8803C154.143 27.6505 155.069 28.2749 156.089 28.7537C157.13 29.2116 158.161 29.4406 159.18 29.4406C160.388 29.4406 161.304 29.2012 161.928 28.7224C162.553 28.2437 162.865 27.5984 162.865 26.7866C162.865 26.3495 162.782 25.9852 162.615 25.6938C162.448 25.4024 162.209 25.1422 161.897 24.9132C161.605 24.6843 161.241 24.4761 160.804 24.2888C160.388 24.1014 159.919 23.8933 159.399 23.6643L156.308 22.3529C155.725 22.1032 155.153 21.8013 154.591 21.4475C154.029 21.0936 153.529 20.6669 153.092 20.1673C152.655 19.647 152.301 19.0641 152.03 18.4188C151.76 17.7528 151.624 16.993 151.624 16.1396C151.624 15.2029 151.822 14.3286 152.218 13.5168C152.613 12.6842 153.165 11.9765 153.873 11.3937C154.58 10.79 155.423 10.3217 156.402 9.98863C157.38 9.63477 158.452 9.45784 159.618 9.45784C160.971 9.45784 162.282 9.71803 163.552 10.2384C164.821 10.738 165.925 11.4665 166.861 12.424L164.52 15.3278C163.791 14.7241 163.031 14.2558 162.24 13.9227C161.449 13.5897 160.575 13.4232 159.618 13.4232C158.598 13.4232 157.786 13.6417 157.182 14.0788C156.579 14.4952 156.277 15.0884 156.277 15.8586C156.277 16.2749 156.37 16.6287 156.558 16.9201C156.766 17.2116 157.026 17.4718 157.338 17.7007C157.671 17.9297 158.056 18.1378 158.494 18.3252C158.931 18.5125 159.399 18.6999 159.899 18.8872L162.927 20.1673C163.635 20.4588 164.27 20.7918 164.832 21.1665C165.415 21.5412 165.904 21.9783 166.299 22.4778C166.716 22.9774 167.028 23.5602 167.236 24.2263C167.465 24.8716 167.579 25.6106 167.579 26.4432C167.579 27.3799 167.382 28.2749 166.986 29.1283C166.612 29.9818 166.06 30.7311 165.331 31.3764C164.603 32.0009 163.708 32.5004 162.646 32.8751C161.605 33.2498 160.419 33.4371 159.087 33.4371ZM174.592 13.7354H168.097V9.89496H185.77V13.7354H179.213V33H174.592V13.7354Z" fill="white"/>
<path d="M136.061 33.8696V26.9109L138.11 25.2967V9H135.174L125 17.3815L126.025 19.1909C128.149 18.9638 132.072 17.9634 133.274 17.513V47.6754L126.025 49.7359V53H138.11V35.4837L136.065 33.8736L136.061 33.8696Z" fill="white"/>
<path d="M151 49.7319L143.814 47.6953V9H139.202V25.7232L137.153 27.3333V33.4431L139.202 35.0533V52.996H151V49.7319Z" fill="white"/>
</svg>
